PathFileType	4	(X/Y/Z)	C:/Users/beibeiliu/ov580/test_trc/capture2\sequence.13_training_dense_left.trc
DataRate	CameraRate	NumFrames	NumMarkers	Units	OrigDataRate	OrigDataStartFrame	OrigNumFrames
120	120	23	19	mm	120	231	369
Frame#	Time	ThumbCMC			ThumbMCP			ThumbIP			ThumbTip			IndexMCP			IndexPIP			IndexTip			MiddleMCP			MiddlePIP			MiddleTip			RingMCP			RingPIP			RingTip			PinkyMCP			PinkyPIP			PinkyTip			BackHand1			BackHand2			BackHand3	
		X0	Y0	Z0	X1	Y1	Z1	X2	Y2	Z2	X3	Y3	Z3	X4	Y4	Z4	X5	Y5	Z5	X6	Y6	Z6	X7	Y7	Z7	X8	Y8	Z8	X9	Y9	Z9	X10	Y10	Z10	X11	Y11	Z11	X12	Y12	Z12	X13	Y13	Z13	X14	Y14	Z14	X15	Y15	Z15	X16	Y16	Z16	X17	Y17	Z17	X18	Y18	Z18	
230	1.91667	-86.2139	128.496	8.05258	-63.9663	133.258	-17.3133	-51.3072	141.74	-38.3821	-50.3343	146.581	-65.3829	-98.8821	169.233	-49.4539	-76.0563	170.742	-73.5777	-52.0015	152.249	-81.0403	-112.104	155.507	-67.1544	-85.6314	159.672	-88.8807	-53.9374	139.973	-88.1727	-116.266	141.958	-73.6449	-98.2402	139.232	-97.3325	-66.5167	133.221	-96.5993	-125.892	118.231	-75.0899	-104.864	125.241	-97.0325	-74.7859	121.361	-99.9616	-139.132	118.828	-29.6983	-138.649	103.887	-3.69848	-126.848	132.172	-1.19536	
231	1.925	-90.0827	129.47	2.43907	-63.5604	135.781	-18.4563	-53.538	142.111	-41.5248	-48.7391	144.535	-65.8271	-101.613	163.049	-58.2832	-81.1978	163.976	-79.1695	-53.0613	142.694	-85.531	-111.269	149.759	-72.6334	-85.5154	148.139	-94.0031	-54.572	132.286	-91.5854	-117.886	128.576	-79.9549	-97.1956	124.911	-100.893	-65.3408	121.344	-98.7232	-122.541	106.124	-74.0013	-104.83	109.468	-97.4784	-77.1075	109.004	-103.731	-139.379	110.436	-30.7643	-140.597	96.4474	-4.59794	-128.917	127.917	-5.09737	
232	1.93333	-92.0618	128.996	-0.0560031	-69.5701	130.637	-22.8589	-55.408	139.363	-43.6914	-50.3186	139.443	-66.1569	-105.643	152.753	-66.7953	-83.6913	155.238	-85.4848	-56.9793	140.766	-88.4734	-114.673	134.968	-80.3961	-88.491	137.07	-99.399	-59.3036	124.987	-96.8063	-118.425	112.93	-85.5703	-95.9486	115.711	-102.065	-63.2027	111.529	-100.374	-120.456	94.9697	-78.9178	-101.2	93.2033	-99.931	-70.798	98.1599	-103.912	-137.533	100.408	-29.5993	-139.133	88.7272	-4.73669	-131.145	121.726	-5.61426	
233	1.94167	-94.3617	125.009	0.0566236	-70.8552	128.102	-22.9146	-55.5792	136.036	-44.5844	-52.3141	134.058	-75.3877	-107.493	142.259	-70.2182	-84.5568	142.58	-93.0215	-56.6953	127.668	-92.0868	-114.619	123.549	-80.8269	-92.4519	123.139	-102.972	-55.3136	112.745	-98.3576	-118.016	103.835	-81.436	-95.7302	99.9242	-104.876	-60.225	102.681	-101.242	-118.784	81.9579	-77.2057	-98.4767	82.859	-99.9519	-72.221	83.2608	-104.38	-138.791	89.0918	-34.1466	-139.412	83.3432	-4.93589	-132.532	117.518	-14.6005	
234	1.95	-95.9013	125.008	-6.54959	-70.7838	125.62	-24.1242	-57.7049	131.669	-49.9209	-53.9959	124.126	-73.0772	-107.309	132.455	-77.9124	-82.4813	129.945	-97.1383	-54.7312	120.238	-92.7839	-112.954	113.053	-87.8494	-86.4495	111.08	-106.525	-55.4658	103.854	-101.52	-114.699	91.9389	-88.9268	-92.6958	90.5894	-104.561	-58.5734	89.4822	-100.953	-115.7	72.3276	-76.0202	-97.8523	68.3213	-98.7942	-69.1236	73.1794	-106.289	-136.985	85.2494	-35.7793	-139.535	82.15	-5.97846	-133.737	112.601	-16.0419	
235	1.95833	-98.6332	121.156	-4.85536	-72.3441	125.073	-27.4329	-57.2844	127.794	-49.9742	-54.5351	116.832	-75.9515	-107.711	118.902	-81.4316	-85.3883	119.162	-99.293	-51.6689	110.863	-92.5214	-110.662	98.5754	-90.9537	-83.6863	100.585	-107.79	-52.6362	93.4005	-102.524	-112.052	78.947	-88.3542	-87.2825	79.153	-104.659	-57.6023	78.9694	-100.966	-113.174	58.626	-76.4812	-92.218	58.6874	-96.6048	-67.5372	62.4955	-102.433	-134.651	75.7211	-35.0178	-138.885	72.185	-4.82389	-134.621	110.369	-20.7948	
236	1.96667	-100.151	120.722	-8.01881	-73.1539	123.614	-27.8416	-58.5076	124.208	-52.794	-52.3365	112.976	-76.0622	-104.64	112.408	-85.3025	-81.871	107.676	-100.143	-49.0537	100.21	-91.7065	-109.472	90.2623	-86.8653	-79.8551	86.8888	-107.122	-50.0202	86.1452	-101.308	-109.601	70.7095	-84.2947	-80.3779	66.7403	-103.159	-51.0654	71.1986	-96.28	-108.73	48.4093	-72.7454	-85.7173	50.2152	-94.0577	-59.1344	58.0027	-97.6185	-134.263	71.4844	-34.1824	-140.162	67.3581	-7.45697	-135.095	100.708	-22.6039	
237	1.975	-105.498	112.186	-15.1769	-77.4818	119.537	-33.3752	-63.286	116.77	-52.6705	-51.758	108.011	-75.2643	-103.744	101.744	-87.6542	-81.2284	101.553	-100.818	-50.8921	94.4748	-91.8855	-105.64	81.6343	-90.5796	-77.8077	80.8699	-106.165	-44.1057	79.001	-96.6062	-104.951	59.705	-83.9773	-79.2798	59.3646	-100.343	-49.3596	68.0646	-94.3699	-101.708	45.3946	-72.5615	-82.0811	40.3541	-87.4573	-50.2113	50.8751	-90.0125	-131.154	59.817	-35.4818	-139.467	63.1687	-9.75571	-137.715	91.0858	-24.4523	
238	1.98333	-109.437	112.503	-15.8726	-81.6438	117.823	-31.0608	-62.97	117.611	-55.3361	-53.2899	103.948	-74.361	-104.933	93.9351	-86.8746	-75.2837	93.1434	-101.315	-48.0055	94.641	-90.3114	-102.482	70.1919	-90.3943	-72.6189	67.7048	-103.119	-40.9974	77.132	-92.1432	-98.8502	52.3498	-84.2999	-74.3652	52.0046	-96.6744	-44.4525	62.5368	-89.3091	-95.5416	34.3812	-69.6099	-72.3565	37.0181	-83.796	-45.3896	45.6529	-84.3545	-129.937	55.3541	-34.2099	-138.723	53.7016	-10.4251	-137.435	86.6106	-23.7611	
239	1.99167	-112.92	108.239	-16.1239	-84.758	112.308	-33.1342	-66.1519	112.844	-54.997	-51.5674	101.431	-75.5432	-103.77	83.0105	-86.3721	-77.7302	88.151	-101.254	-47.0363	89.5158	-88.2437	-100.198	62.5972	-88.9561	-70.2718	62.1699	-100.351	-38.9972	73.9811	-87.1405	-95.7659	43.5534	-80.0151	-66.7168	47.9679	-93.6166	-41.6836	58.2358	-84.5607	-93.2916	32.1672	-63.1288	-65.0561	33.0969	-80.5014	-43.1516	43.3038	-81.7607	-126.619	45.5933	-36.2077	-138.261	47.8721	-5.90068	-139.434	78.0296	-27.4126	
240	2	-113.674	102.287	-18.7378	-87.2053	111.534	-30.8137	-67.8353	112.032	-53.9704	-54.8525	96.6747	-71.2117	-103.456	77.3145	-85.8923	-74.0206	81.2379	-99.6833	-50.2083	87.7329	-89.77	-95.3814	55.6316	-89.5609	-70.8418	59.715	-99.559	-38.2246	75.4682	-85.2369	-92.8005	42.5416	-80.4909	-64.8936	45.6181	-91.191	-37.2992	61.2249	-79.9052	-85.9339	24.0252	-65.1175	-61.7084	29.2877	-76.7846	-38.543	45.4709	-78.3806	-125.99	38.5065	-33.579	-134.461	44.7761	-7.29289	-140.132	72.1889	-28.0407	
241	2.00833	-117.789	94.9101	-14.5968	-89.7865	107.905	-32.0331	-70.9352	109.384	-57.154	-57.7661	97.7415	-70.1118	-104.8	75.1653	-85.9281	-79.1559	79.8166	-100.202	-51.3095	86.2848	-87.8685	-97.7339	54.5484	-87.6669	-68.8658	61.398	-100.21	-39.9464	74.9646	-86.0701	-90.029	37.3773	-79.4966	-58.0879	43.7725	-90.0435	-37.5979	64.8629	-77.7457	-81.8549	21.7406	-62.4686	-56.547	30.2491	-75.4655	-34.2613	45.9363	-73.4485	-124.08	33.4955	-32.6801	-132.264	36.7068	-4.97133	-137.017	62.8139	-29.9375	
242	2.01667	-120.326	94.146	-17.1742	-93.6621	102.106	-34.3432	-75.4345	109.252	-55.4732	-58.0492	99.6995	-74.9408	-103.358	72.4807	-88.6609	-76.3948	77.5986	-99.6731	-50.239	87.5716	-85.8757	-94.0566	50.1893	-87.8757	-66.4654	62.0002	-99.9861	-40.3397	74.408	-86.3689	-85.7873	31.805	-77.2406	-59.3276	46.8039	-89.2603	-35.5155	65.9088	-75.0915	-79.3731	21.6544	-62.3309	-56.533	31.1965	-75.4274	-31.7216	50.394	-71.8096	-121.707	33.2801	-33.5913	-131.123	34.706	-4.41981	-139.218	60.0845	-30.4616	
243	2.025	-122.83	89.3481	-17.2005	-97.2292	103.679	-33.0214	-78.8162	105.57	-54.6344	-62.0593	100.003	-72.1843	-103.015	66.1982	-86.8119	-77.1008	73.5661	-98.6717	-51.1844	89.4784	-86.2851	-93.1064	49.2794	-87.5082	-65.35	57.6431	-99.1071	-38.9564	75.1247	-84.2911	-84.1107	31.842	-73.7931	-60.0341	44.3149	-88.6098	-35.5833	68.0005	-73.3794	-75.2333	21.1835	-61.7692	-52.0061	29.2643	-73.4347	-33.0658	51.201	-70.9387	-117.366	29.6148	-35.776	-130.522	31.1305	-6.73141	-137.576	51.5245	-27.6996	
244	2.03333	-123.017	84.9898	-18.042	-101.211	103.306	-31.8735	-83.9284	106.644	-52.3371	-64.1855	101.36	-74.1029	-104.783	64.5949	-84.1136	-78.8627	71.7189	-98.6191	-55.133	91.4928	-87.1883	-92.9822	46.9286	-87.0418	-65.0428	55.2493	-97.2961	-40.1471	76.4419	-84.9633	-82.4675	32.8149	-75.316	-54.7717	47.4774	-87.1481	-34.6897	68.265	-73.0173	-73.8479	19.982	-58.1333	-50.5949	27.4242	-71.5891	-31.1851	52.3356	-71.6409	-114.295	23.3666	-30.1186	-127.491	25.2476	-7.28933	-139.076	52.8853	-26.2123	
245	2.04167	-126.743	83.2596	-15.0922	-101.287	101.587	-35.8447	-86.3576	107.636	-52.4246	-68.4852	102.23	-69.3888	-102.072	62.0899	-84.8187	-77.6965	73.3539	-97.2922	-55.2009	92.5906	-85.8355	-93.1645	45.9317	-83.1956	-64.6876	55.5715	-96.4596	-39.8087	77.5203	-83.4573	-80.5036	33.0542	-75.6228	-52.333	46.5046	-85.3842	-35.3091	67.7672	-73.8816	-70.2523	18.5965	-55.3938	-50.4685	30.2761	-71.8787	-30.6767	54.6238	-72.5439	-111.552	21.915	-32.7582	-124.944	23.3585	-5.2419	-138.173	47.7907	-26.899	
246	2.05	-127.642	81.8782	-17.2178	-103.768	98.0774	-35.8778	-89.5864	104.217	-50.9928	-71.0343	101.583	-69.1655	-100.163	60.8024	-85.3326	-76.4417	74.8549	-97.5771	-54.8031	90.7275	-82.109	-89.9901	45.041	-84.0796	-61.923	60.5926	-96.3975	-43.1818	83.2718	-85.5925	-75.3526	28.9429	-71.8527	-52.7093	50.1654	-86.1237	-34.5653	73.0193	-72.1354	-67.048	21.7239	-57.9711	-45.8373	35.2998	-72.1729	-31.6128	55.4268	-70.8334	-110.094	21.3523	-33.8179	-122.629	20.7553	-2.53041	-134.305	42.9969	-29.8314	
247	2.05833	-127.282	75.1153	-16.5845	-105.65	92.9914	-30.2519	-90.0926	102.055	-53.833	-73.6646	101.032	-67.8299	-102.406	61.5048	-85.0745	-77.5191	74.6656	-96.7724	-57.0156	94.3916	-83.9337	-86.4346	45.3275	-83.2997	-62.6418	61.3259	-95.3336	-40.6303	87.4435	-80.8667	-72.7327	30.5904	-71.0855	-46.4904	48.924	-82.3687	-33.0237	76.59	-70.1923	-62.6998	20.5062	-54.425	-43.6651	36.1392	-69.5204	-29.7041	60.7956	-71.0139	-103.979	15.9402	-31.5801	-119.283	15.8932	-4.80519	-133.31	36.6795	-25.0099	
248	2.06667	-127.996	74.6562	-15.6716	-106.91	92.703	-28.9773	-91.1972	102.445	-48.1143	-71.103	101.188	-66.6333	-98.4212	59.1327	-80.2014	-75.0707	76.1453	-94.2384	-53.2668	93.8153	-78.7564	-81.692	43.1798	-80.2136	-58.8614	64.9681	-94.1109	-40.2738	87.5055	-81.3722	-69.9459	32.6642	-69.6001	-47.0643	52.0531	-81.3676	-33.2224	77.0394	-71.6146	-59.6035	21.7129	-51.8846	-38.8786	37.5802	-65.0737	-23.0943	65.3705	-64.0631	-102.424	17.3162	-31.9515	-118.931	13.5147	-5.23352	-129.768	36.2249	-24.7629	
249	2.075	-126.717	72.6691	-15.9584	-105.897	92.498	-27.8335	-87.3487	102.585	-48.7682	-69.7714	104.447	-62.0998	-92.7813	60.8149	-81.3825	-72.0445	76.1583	-90.5033	-52.6145	96.3401	-76.035	-79.2764	45.3828	-77.2332	-54.2655	62.3474	-88.9672	-33.9222	87.7033	-74.0478	-64.8498	33.2807	-66.9909	-40.3474	54.3022	-76.7133	-28.1948	81.7679	-63.1091	-56.0432	23.1238	-51.4154	-33.9203	37.2431	-60.2647	-18.9359	64.0956	-59.0032	-98.7452	12.1152	-29.8477	-115.785	13.3263	-3.91094	-131.179	35.2114	-25.3341	
250	2.08333	-123.503	67.2058	-14.2901	-103.807	92.2369	-26.0581	-85.3734	101.19	-45.0707	-68.8892	102.537	-57.1629	-93.2385	62.5948	-79.4303	-66.8159	75.1054	-87.2745	-46.4525	98.808	-68.6061	-72.5799	45.7451	-78.697	-51.599	65.9559	-86.4197	-32.2146	87.7919	-71.7793	-62.9804	35.3518	-64.8418	-35.7504	52.3444	-70.9921	-25.5913	79.0154	-60.5728	-54.5035	23.3716	-47.2579	-31.0732	38.8948	-55.9961	-17.1344	63.1785	-54.6005	-100.166	14.0434	-29.7996	-115.107	11.27	-3.72448	-126.736	32.6075	-24.5975	
251	2.09167	-126.927	68.1595	-11.4985	-105.089	89.9426	-21.7828	-85.5467	99.6973	-41.2756	-66.0528	98.6875	-56.8096	-88.8241	60.8377	-77.8127	-65.5976	77.7815	-84.5769	-48.9868	96.9337	-69.1843	-73.6014	47.0681	-76.2196	-49.7248	63.5904	-83.4573	-32.3858	89.2308	-69.2481	-58.6982	34.9293	-65.0507	-37.3647	54.4071	-70.5897	-24.0015	80.5701	-56.1538	-53.5675	23.9535	-43.9613	-30.56	38.8724	-54.1147	-16.9867	67.8339	-52.4116	-98.2148	13.1693	-30.8869	-115.103	7.54518	-3.35938	-124.962	27.68	-25.9526	
252	2.1	-126.923	63.3722	-10.107	-106.273	89.33	-25.7569	-89.7307	99.7064	-40.36	-68.7402	101.549	-55.2248	-93.188	59.1576	-75.1686	-65.0563	77.3062	-82.2111	-48.8583	97.7147	-65.7056	-72.077	44.9298	-75.4529	-51.9282	64.4873	-82.9714	-33.5383	93.4783	-66.7474	-60.3046	34.4642	-62.6621	-39.5993	52.4216	-68.7922	-24.6995	78.1281	-55.8008	-48.5885	22.1362	-43.8667	-31.8302	44.0548	-53.0753	-20.9084	69.218	-50.1804	-98.2647	12.2369	-26.8073	-115.183	5.74631	-3.00611	-127.263	27.0418	-25.6447	
